HIERARCHY
ROOT Hips
{
	OFFSET 0.00000 0.00000 0.00000
	CHANNELS 6 Xposition Yposition Zposition Zrotation Yrotation Xrotation 
	JOINT LHipJoint
	{
		OFFSET 0 0 0
		CHANNELS 3 Zrotation Yrotation Xrotation
		JOINT LeftUpLeg
		{
			OFFSET 1.81638 -1.86202 0.89635
			CHANNELS 3 Zrotation Yrotation Xrotation
			JOINT LeftLeg
			{
				OFFSET 2.63464 -7.23861 0.00000
				CHANNELS 3 Zrotation Yrotation Xrotation
				JOINT LeftFoot
				{
					OFFSET 2.45871 -6.75336 0.00000
					CHANNELS 3 Zrotation Yrotation Xrotation
					JOINT LeftToeBase
					{
						OFFSET 0.34235 -0.94059 2.20020
						CHANNELS 3 Zrotation Yrotation Xrotation
						End Site
						{
							OFFSET 0.00000 -0.00000 1.18611
						}
					}
				}
			}
		}
	}
	JOINT RHipJoint
	{
		OFFSET 0 0 0
		CHANNELS 3 Zrotation Yrotation Xrotation
		JOINT RightUpLeg
		{
			OFFSET -1.84405 -1.86203 0.89635
			CHANNELS 3 Zrotation Yrotation Xrotation
			JOINT RightLeg
			{
				OFFSET -2.71067 -7.44751 0.00000
				CHANNELS 3 Zrotation Yrotation Xrotation
				JOINT RightFoot
				{
					OFFSET -2.47159 -6.79060 0.00000
					CHANNELS 3 Zrotation Yrotation Xrotation
					JOINT RightToeBase
					{
						OFFSET -0.26223 -0.72048 2.36007
						CHANNELS 3 Zrotation Yrotation Xrotation
						End Site
						{
							OFFSET -0.00000 -0.00000 1.23343
						}
					}
				}
			}
		}
	}
	JOINT LowerBack
	{
		OFFSET 0 0 0
		CHANNELS 3 Zrotation Yrotation Xrotation
		JOINT Spine
		{
			OFFSET 0.02089 1.99248 -0.22512
			CHANNELS 3 Zrotation Yrotation Xrotation
			JOINT Spine1
			{
				OFFSET 0.01476 2.01356 -0.03079
				CHANNELS 3 Zrotation Yrotation Xrotation
				JOINT Neck
				{
					OFFSET 0 0 0
					CHANNELS 3 Zrotation Yrotation Xrotation
					JOINT Neck1
					{
						OFFSET 0.04846 1.65098 0.06663
						CHANNELS 3 Zrotation Yrotation Xrotation
						JOINT Head
						{
							OFFSET -0.06061 1.60634 -0.07565
							CHANNELS 3 Zrotation Yrotation Xrotation
							End Site
							{
								OFFSET -0.02954 1.73562 -0.03642
							}
						}
					}
				}
				JOINT LeftShoulder
				{
					OFFSET 0 0 0
					CHANNELS 3 Zrotation Yrotation Xrotation
					JOINT LeftArm
					{
						OFFSET 3.45234 1.47051 -0.06993
						CHANNELS 3 Zrotation Yrotation Xrotation
						JOINT LeftForeArm
						{
							OFFSET 5.49313 -0.00000 0.00000
							CHANNELS 3 Zrotation Yrotation Xrotation
							JOINT LeftHand
							{
								OFFSET 3.29037 -0.00000 0.00000
								CHANNELS 3 Zrotation Yrotation Xrotation
								JOINT LeftFingerBase
								{
									OFFSET 0 0 0
									CHANNELS 3 Zrotation Yrotation Xrotation
									JOINT LeftHandIndex1
									{
										OFFSET 0.72966 -0.00000 0.00000
										CHANNELS 3 Zrotation Yrotation Xrotation
										End Site
										{
											OFFSET 0.58827 -0.00000 0.00000
										}
									}
								}
								JOINT LThumb
								{
									OFFSET 0 0 0
									CHANNELS 3 Zrotation Yrotation Xrotation
									End Site
									{
										OFFSET 0.59725 -0.00000 0.59725
									}
								}
							}
						}
					}
				}
				JOINT RightShoulder
				{
					OFFSET 0 0 0
					CHANNELS 3 Zrotation Yrotation Xrotation
					JOINT RightArm
					{
						OFFSET -3.41935 1.44327 0.20453
						CHANNELS 3 Zrotation Yrotation Xrotation
						JOINT RightForeArm
						{
							OFFSET -5.23684 -0.00000 0.00000
							CHANNELS 3 Zrotation Yrotation Xrotation
							JOINT RightHand
							{
								OFFSET -3.38251 -0.00000 0.00000
								CHANNELS 3 Zrotation Yrotation Xrotation
								JOINT RightFingerBase
								{
									OFFSET 0 0 0
									CHANNELS 3 Zrotation Yrotation Xrotation
									JOINT RightHandIndex1
									{
										OFFSET -0.69145 -0.00000 0.00000
										CHANNELS 3 Zrotation Yrotation Xrotation
										End Site
										{
											OFFSET -0.55747 -0.00000 0.00000
										}
									}
								}
								JOINT RThumb
								{
									OFFSET 0 0 0
									CHANNELS 3 Zrotation Yrotation Xrotation
									End Site
									{
										OFFSET -0.56598 -0.00000 0.56598
									}
								}
							}
						}
					}
				}
			}
		}
	}
}
MOTION
Frames: 7
Frame Time: .0083333
-13.3424 17.9788 -1.7997 0 0 0 0 0 0 -21 0 0 0 0 0 0 0 0 0 0 0 0 0 0 21 0 0 0 0 0 0 0 0 0 0 0 0 0 0 0 0 0 0 0 0 0 0 -16 0 0 21 0 0 11 0 0 0 -8 0 0 0 0 0 0 0 0 0 0 0 0 0 0 0 0 0 0 0 0 8 0 0 0 0 0 0 0 0 0 0 0 0 0 0 0 0 0
-13.3424 17.9788 -1.7997 -149.4120 -82.8833 146.3930 0.0000 0.0000 0.0000 -9.7278 -2.3066 5.6345 0.1933 2.8315 7.8100 -0.0763 9.4426 -12.0277 0.1948 -2.8419 -7.8390 0.0000 0.0000 0.0000 18.0783 4.7696 3.8906 -0.2610 -3.2867 9.0779 0.8013 -16.7951 -12.9239 -0.0024 0.3162 -0.8687 1.0437 -1.6095 13.8417 1.7468 -2.1220 4.0917 1.5922 -1.1478 -3.4108 0.4008 -8.4241 -1.7903 -1.8405 -11.3707 -3.6104 -0.5779 -5.7016 -0.9512 -0.0000 0.0000 0.0000 -77.8982 3.6209 37.1348 35.3351 -45.0500 -15.0500 -0.0000 -0.0000 6.2338 -14.5840 11.1809 -2.8882 -7.1250 0.0000 -0.0000 -34.8803 38.6118 6.4565 -0.0000 0.0000 0.0000 75.6428 2.3157 42.5482 -31.9273 42.4892 -12.6917 0.0000 0.0000 14.4373 0.2214 -14.4662 -0.0553 7.1250 -0.0000 -0.0000 24.8616 -42.9548 1.3451
-13.3290 17.9776 -1.7966 -149.6130 -82.8932 146.7120 0.0000 0.0000 0.0000 -9.7509 -2.4020 5.2941 0.2087 2.9411 8.1148 -0.0711 9.4222 -12.1014 0.1933 -2.8312 -7.8091 0.0000 0.0000 0.0000 18.0239 4.9130 3.5027 -0.2899 -3.4622 9.5684 0.7690 -16.6891 -13.3723 -0.0018 0.2758 -0.7577 1.1153 -1.5387 13.8616 1.7451 -2.0150 4.0476 1.5343 -1.0937 -3.4722 -0.5900 -8.1484 -1.5617 -0.9670 -10.9791 -4.0809 -0.1488 -5.4989 -1.0203 -0.0000 0.0000 0.0000 -77.3729 3.1495 37.8156 35.8420 -45.4041 -15.4098 -0.0000 -0.0000 6.2259 -14.4815 10.0648 -2.5844 -7.1250 0.0000 -0.0000 -34.3310 37.6677 7.2744 -0.0000 0.0000 0.0000 75.3283 2.5144 42.8845 -32.3564 42.8295 -12.9825 0.0000 0.0000 15.0084 -0.8255 -14.0292 0.2001 7.1250 -0.0000 -0.0000 23.8105 -42.6663 1.4617
-13.3157 17.9779 -1.7933 -150.0060 -82.9589 147.2100 0.0000 0.0000 0.0000 -9.8281 -2.5629 4.8788 0.2349 3.1191 8.6105 -0.0544 9.3547 -12.3263 0.1814 -2.7433 -7.5650 0.0000 0.0000 0.0000 17.8907 4.7452 3.0393 -0.3184 -3.6271 10.0298 0.7106 -16.3498 -13.6993 -0.0014 0.2428 -0.6672 1.1435 -1.4837 13.9130 1.7286 -1.9338 3.9921 1.4906 -1.0520 -3.5611 -0.6767 -7.6041 -1.5914 -1.0477 -10.2657 -4.3808 -0.1563 -5.1407 -1.1063 0.0000 -0.0000 0.0000 -76.8547 2.6870 38.3656 36.4202 -45.8000 -15.8230 -0.0000 -0.0000 6.6014 -14.6307 8.7349 -2.2702 -7.1250 0.0000 -0.0000 -33.8970 36.5099 8.3073 0.0000 -0.0000 0.0000 74.9980 2.6854 43.2095 -32.8838 43.2405 -13.3424 0.0000 0.0000 15.9189 -2.3026 -13.4100 0.5343 7.1250 -0.0000 -0.0000 22.3355 -42.2472 1.6053
-13.3028 17.9705 -1.7890 -150.6280 -83.0910 147.9290 0.0000 0.0000 0.0000 -9.9698 -2.7467 4.5248 0.2567 3.2599 9.0031 -0.0456 9.3316 -12.4604 0.1811 -2.7413 -7.5593 0.0000 0.0000 0.0000 17.6990 4.6653 2.6175 -0.3531 -3.8176 10.5641 0.6562 -16.1437 -14.2864 -0.0000 0.0024 -0.0065 1.1740 -1.4290 13.9668 1.6821 -1.8538 3.9417 1.4144 -1.0108 -3.6470 -0.9711 -7.1310 -1.5919 -0.9023 -9.6393 -4.7365 -0.0622 -4.8249 -1.1930 0.0000 -0.0000 0.0000 -76.3243 2.1267 38.9775 36.9256 -46.1392 -16.1864 -0.0000 -0.0000 6.7432 -13.8387 7.1988 -1.7681 -7.1250 0.0000 -0.0000 -32.7414 35.2544 9.1274 0.0000 -0.0000 0.0000 74.6579 2.8910 43.4787 -33.4509 43.6737 -13.7324 0.0000 0.0000 16.9743 -4.2127 -12.6179 0.9218 7.1250 -0.0000 -0.0000 20.4474 -41.6967 1.7477
-13.2880 17.9668 -1.7851 -150.9130 -83.1746 148.3170 0.0000 0.0000 0.0000 -10.0403 -2.9099 4.1760 0.2766 3.3827 9.3460 -0.0431 9.3499 -12.5357 0.1888 -2.7983 -7.7177 0.0000 0.0000 0.0000 17.5414 4.3454 2.0533 -0.3958 -4.0394 11.1876 0.5989 -15.8958 -14.7843 -0.0019 -0.2849 0.7827 1.2108 -1.3949 14.0186 1.6573 -1.8009 3.9086 1.3612 -0.9837 -3.7124 -1.7606 -6.7748 -1.4982 -0.2568 -9.1475 -5.1333 0.2639 -4.5733 -1.2644 0.0000 0.0000 0.0000 -75.7759 1.6047 39.4568 37.6328 -46.6032 -16.6983 -0.0000 -0.0000 7.0831 -12.6684 5.6337 -1.2641 -7.1250 0.0000 -0.0000 -31.3500 33.9885 9.7580 0.0000 0.0000 0.0000 74.2628 3.2496 43.9081 -33.9843 44.0731 -14.1022 0.0000 0.0000 18.0008 -6.5121 -11.6042 1.3153 7.1250 -0.0000 -0.0000 18.1820 -40.9512 1.8861
-13.2732 17.9661 -1.7807 -151.3400 -83.3186 148.8440 0.0000 0.0000 0.0000 -10.1544 -3.1157 3.8376 0.2971 3.5050 9.6881 -0.0326 9.3015 -12.6624 0.1816 -2.7447 -7.5687 0.0000 0.0000 0.0000 17.3532 3.9560 1.3901 -0.4445 -4.2775 11.8588 0.6022 -16.0189 -15.0172 -0.0008 -0.1810 0.4972 1.2299 -1.3649 14.0662 1.6193 -1.7569 3.8846 1.3051 -0.9612 -3.7657 2.7372 -5.0866 -2.7739 -4.9082 -7.1338 -4.6774 -1.9707 -3.6108 -1.2891 -0.0000 0.0000 0.0000 -75.2244 0.8947 39.9756 38.1521 -46.9362 -17.0766 -0.0000 -0.0000 7.2153 -11.1604 4.1405 -0.8161 -7.1250 0.0000 -0.0000 -29.7854 32.7895 10.1394 -0.0000 0.0000 0.0000 73.8847 3.6096 44.1804 -34.6548 44.5641 -14.5706 0.0000 0.0000 19.0580 -8.7331 -10.6605 1.6277 7.1250 -0.0000 -0.0000 16.0348 -40.2372 1.9401
